<?xml version="1.0" encoding="UTF-8" standalone="no"?>
<svg
   id="svg"
   version="1.1"
   style="display:block"
   viewBox="0 0 64 64"
   sodipodi:docname="PICT.svg"
   inkscape:version="1.3.2 (091e20e, 2023-11-25)"
   inkscape:export-filename="PICT-Web-Plain.svg"
   inkscape:export-xdpi="96"
   inkscape:export-ydpi="96"
   width="64"
   height="64"
   xmlns:inkscape="http://www.inkscape.org/namespaces/inkscape"
   xmlns:sodipodi="http://sodipodi.sourceforge.net/DTD/sodipodi-0.dtd"
   xmlns="http://www.w3.org/2000/svg"
   xmlns:svg="http://www.w3.org/2000/svg">
  <defs
     id="defs78" />
  <sodipodi:namedview
     id="namedview78"
     pagecolor="#ffffff"
     bordercolor="#000000"
     borderopacity="0.25"
     inkscape:showpageshadow="2"
     inkscape:pageopacity="0.0"
     inkscape:pagecheckerboard="0"
     inkscape:deskcolor="#d1d1d1"
     inkscape:zoom="7.2407734"
     inkscape:cx="42.467839"
     inkscape:cy="53.378276"
     inkscape:window-width="1920"
     inkscape:window-height="1172"
     inkscape:window-x="0"
     inkscape:window-y="0"
     inkscape:window-maximized="0"
     inkscape:current-layer="layer7" />
  <g
     inkscape:groupmode="layer"
     id="Border"
     inkscape:label="Border"
     style="display:inline;opacity:1">
    <ellipse
       style="fill:#312514;fill-opacity:1;stroke-width:0.0990594"
       id="path79"
       cx="32.052635"
       cy="31.984079"
       rx="31.126247"
       ry="31.518589"
       inkscape:label="OuterBorder" />
    <ellipse
       style="display:block;opacity:1;fill:#dcd6c1;fill-opacity:1;stroke-width:0.0930915"
       id="path79-3"
       cx="32.052635"
       cy="31.984079"
       rx="29.250994"
       ry="29.619703"
       inkscape:label="InnerBody" />
  </g>
  <g
     inkscape:groupmode="layer"
     id="Earth"
     inkscape:label="Earth"
     style="display:block">
    <path
       d="m 24.074889,58.60316 c 5.650593,-0.02003 11.30287,-0.05401 16.952866,3.2e-5 -0.988041,0.774544 -2.991044,0.769409 -4.35068,1.243971 -4.271248,0.960022 -8.659771,0.178777 -12.82525,-0.909408 -0.607902,-0.303647 -0.12356,-0.229125 0.223064,-0.334595 z"
       style="display:block;fill:#aa7722;stroke-width:0.111532"
       id="G1"
       inkscape:label="Ground-1" />
    <path
       d="m 16.825306,55.145672 c 10.259995,-0.05764 20.522068,0.0085 30.782841,1e-5 -0.888761,0.74448 -1.886422,1.75581 -3.022622,1.859959 -4.874653,-0.196782 -9.761718,-0.03995 -14.641528,-0.09013 -3.172485,0.04432 -6.377112,-0.08278 -9.531422,0.06136 -1.413138,0.450176 -2.43477,-1.024465 -3.587269,-1.608087 0,-0.07436 0,-0.148713 0,-0.223064 z"
       style="display:block;fill:#a26c16;stroke-width:0.111532"
       id="path10"
       inkscape:label="Ground-2" />
    <path
       d="m 12.92169,51.688173 c 12.862622,-0.0538 25.726822,0.0053 38.590083,2.1e-5 -0.67195,1.714889 -2.34609,2.15961 -4.046107,1.898194 -10.593941,0.01928 -21.188873,0.08246 -31.782228,0.06871 -1.140802,0.133915 -2.800708,-0.82175 -2.761748,-1.96693 z"
       style="display:block;fill:#a3721e;stroke-width:0.111532"
       id="path9"
       inkscape:label="Ground-3" />
    <path
       d="m 10.021851,48.230684 c 10.368469,-0.1027 20.74055,-0.0053 31.110415,-0.03526 4.426289,0.02099 8.853782,-0.03462 13.279336,0.03526 0.290437,0.74904 -1.254113,2.147732 -2.238223,1.746243 -13.469064,0.03633 -26.940526,0.09269 -40.408141,0.07543 -0.834619,-0.03399 -1.706654,-1.020065 -1.743387,-1.821723 z"
       style="display:block;fill:#a16f16;stroke-width:0.111532"
       id="G4"
       inkscape:label="Ground-4" />
    <path
       d="m 55.905089,44.304845 c 2.25643,-0.412377 0.373812,2.698328 -0.998726,2.389791 -6.315758,-0.488518 -12.655837,-0.13579 -18.983186,-0.210588 -8.888683,0.0032 -17.780039,0.106216 -26.666985,0.05359 C 8.3946085,46.371869 6.7244535,44.1161 8.2512758,44.427556 c 1.3035028,0.01278 2.3018132,0.436965 3.7868202,0.263739 13.97564,-0.02067 27.952463,0.04048 41.927378,-0.02962 0.450027,-0.476937 1.329828,-0.226366 1.939615,-0.356776 z"
       style="display:block;fill:#a27013;stroke-width:0.111532"
       id="path7"
       inkscape:label="Ground-5" />
  </g>
  <g
     inkscape:groupmode="layer"
     id="layer9"
     inkscape:label="Mountains"
     style="display:block">
    <path
       d="m 31.967679,18.923742 h 0.334595 c 3.515657,3.851286 0.03047,0.0032 6.190035,6.196992 0.139168,0.140467 0.278335,0.280934 0.421731,0.425651 0.424363,0.41323 0.844922,0.813686 1.307008,1.184599 h 0.446128 c 0.255695,-0.30141 0.518156,-0.596864 0.780723,-0.892255 l 0.446127,0.111532 c 0.241367,0.257475 0.241367,0.257475 0.515845,0.606453 1.822649,2.220058 7.485473,7.072957 14.680403,14.373688 0,0 -0.03995,0.589556 -0.292354,1.082751 -0.252415,0.493184 -1.882161,1.371248 -2.774618,1.369426 -7.240751,-0.2892 -9.054335,-0.441876 -16.300146,-0.429838 C 30.391083,43.067735 17.729535,43.226036 10.398155,43.36678 8.4514344,43.516058 7.4450055,41.116498 7.7652295,40.784033 11.246017,37.413658 14.924331,34.245744 18.507158,30.983152 21.60705,28.330155 31.0051,20.02063 31.967679,18.923742 Z m 0,2.676765 c -7.547765,6.258996 -15.001182,12.632826 -22.162734,19.334742 -0.3474651,0.361453 0.35031,0.787115 0.790172,0.795851 0.439864,0.0085 5.204029,0.365779 18.447132,0.362316 12.851681,-0.196494 12.371473,-0.278494 25.231837,-0.52865 0.806579,-0.142246 0.252659,-0.574353 0,-0.892255 -3.26288,-4.435344 -8.264417,-7.880208 -12.045453,-12.045485 -0.547262,-0.381578 -0.825053,-0.643932 -1.449925,0 -3.787929,3.996142 -8.198121,7.301902 -11.915023,11.327117 -0.105257,0.287752 -0.512488,0.805589 -0.68809,1.052943 -0.573938,0.137026 -1.171793,0.105044 -1.758377,0.114579 -0.08203,0.0011 -0.379511,-0.408787 -0.137676,-0.783771 0.120034,-0.186117 2.148147,-1.961262 2.737267,-2.474507 6.940257,-6.486555 7.451392,-6.649064 9.977388,-9.570957 L 38.882666,27.846303 C 36.906179,25.719175 34.721074,23.747418 32.63687,21.712039 32.364789,21.558671 32.347967,21.429411 31.967668,21.600507 Z"
       style="display:block;opacity:1;fill:#332512;stroke-width:0.111532"
       id="Mountains"
       inkscape:label="Mountains"
       sodipodi:nodetypes="cccccccccczccccccszzccccccczzcccccs" />
  </g>
  <g
     inkscape:groupmode="layer"
     id="World"
     inkscape:label="World"
     style="display:block">
    <path
       d="m 55.916382,25.231232 c 0.981287,-0.427739 1.652705,0.763028 1.060453,1.473768 -3.671848,0.282766 -7.362681,0.315632 -11.041666,0.334596 -0.973563,-2.074127 2.516567,-1.117567 3.638332,-1.515295 2.114194,-0.09982 4.228537,-0.197453 6.342881,-0.293069 z"
       style="display:block;fill:#392813;stroke-width:0.111532"
       id="path32"
       inkscape:label="RightSkyglow-2" />
    <path
       d="m 7.5681497,25.366618 c 3.6122623,-0.08651 7.2145433,0.268117 10.8186023,0.446127 1.03677,1.532639 -0.81001,1.792479 -1.933052,1.425816 -2.987742,-0.33842 -5.994394,-0.380416 -8.9970822,-0.422029 -0.2340156,-0.344216 -0.2010429,-1.120081 0.1115319,-1.449914 z"
       style="display:block;fill:#352411;stroke-width:0.111532"
       id="path33"
       inkscape:label="LeftSkyglow-2" />
    <path
       d="m 54.523134,19.120822 c 0.66641,-0.0978 1.124502,0.807144 0.798877,1.282877 -2.419078,1.165955 -5.088289,1.772397 -7.540148,2.890411 -0.85387,0.453234 -3.222077,1.414055 -2.738949,-0.492736 3.117001,-1.321273 6.366223,-2.341062 9.48022,-3.680552 z"
       style="display:block;fill:#332612;stroke-width:0.111532"
       id="path34"
       inkscape:label="RightSkyglow-3" />
    <path
       d="m 9.5757235,19.120822 c 2.2120145,0.645945 4.3399945,1.592927 6.5159055,2.363423 1.058801,0.694025 2.426364,0.877138 3.410442,1.651724 0.09854,0.89592 -0.622849,1.230622 -1.3473,0.766544 -2.970866,-1.278382 -6.063013,-2.272773 -9.025175,-3.554841 0.031215,-0.460499 0.164416,-0.858675 0.4461275,-1.22685 z"
       style="display:block;fill:#352411;stroke-width:0.111532"
       id="path35"
       inkscape:label="LeftSkyglow-3" />
    <path
       d="m 50.954114,14.771068 c 2.323547,1.151019 -0.844069,2.248482 -1.781698,3.025945 -1.772258,1.187997 -3.560252,2.402138 -5.24008,3.687339 -1.380539,0.28626 -1.099041,-1.814223 0.155808,-1.899505 2.31806,-1.560658 4.584376,-3.209623 6.86597,-4.813779 z"
       style="display:block;fill:#332612;stroke-width:0.111532"
       id="path37"
       inkscape:label="RightSkyglow-4" />
    <path
       d="m 13.256286,14.8826 c 1.457457,0.322813 2.463843,1.66942 3.770659,2.348764 1.46044,1.238665 3.467428,2.073391 4.673473,3.433262 -0.207073,1.687137 -2.060022,0.08246 -2.742935,-0.400168 -2.11233,-1.475196 -4.232906,-2.945671 -6.370389,-4.378071 0.04751,-0.431703 0.280188,-0.784878 0.669192,-1.003787 z"
       style="display:block;fill:#352612;stroke-width:0.111532"
       id="path43"
       inkscape:label="LeftSkyglow-4" />
    <path
       d="m 46.827424,11.536643 c 1.743089,0.0832 1.029525,1.686008 -0.162158,2.249047 -2.0737,1.730635 -3.560124,4.065465 -5.637511,5.781259 -1.76576,-0.929127 0.852603,-2.198794 1.348195,-3.154544 1.452673,-1.656188 3.02717,-3.197308 4.451474,-4.875762 z"
       style="display:block;fill:#362c14;stroke-width:0.111532"
       id="path45"
       inkscape:label="RightSkyglow-5" />
    <path
       d="m 17.159901,11.425112 c 1.449489,0.815762 2.304307,2.383377 3.519609,3.493923 1.091359,1.287118 2.303359,2.476276 3.395379,3.755659 -0.327639,1.346799 -1.569948,0.466465 -2.042433,-0.341573 -1.900186,-2.022276 -3.823575,-4.064932 -5.653278,-6.127286 0.179672,-0.340285 0.544428,-0.491874 0.780723,-0.780723 z"
       style="display:block;fill:#342613;stroke-width:0.111532"
       id="path49"
       inkscape:label="LeftSkyglow-5" />
    <path
       d="m 47.83121,28.935638 c 2.289584,0.637092 4.38115,1.876684 6.63529,2.645838 1.676419,-0.190198 1.30151,2.369165 -0.05742,1.59347 -2.211419,-1.202954 -4.68045,-1.897874 -6.91243,-3.012458 -0.06328,-0.47389 0.02972,-0.855053 0.334595,-1.22685 z"
       style="display:block;fill:#372713;stroke-width:0.111532"
       id="path56"
       inkscape:label="RightSkyglow-1" />
    <path
       d="m 15.598455,29.270233 c 1.578141,-0.409351 1.215441,1.75011 -0.228294,1.571035 -2.000138,0.717654 -3.99595,1.456232 -6.0175013,2.109528 -0.7903219,-0.121525 -0.9524155,-1.604508 0.032813,-1.550335 2.1456323,-0.484576 4.1555393,-1.379388 6.2129403,-2.130228 z"
       style="display:block;fill:#332511;stroke-width:0.111532"
       id="path57"
       inkscape:label="LeftSkyglow-1" />
  </g>
  <g
     inkscape:groupmode="layer"
     id="layer7"
     inkscape:label="Space">
    <circle
       style="display:inline;opacity:1;fill:#9d6813;fill-opacity:1;stroke-width:0.0923023"
       id="Ceres"
       cx="32.052635"
       cy="12.669031"
       r="7.1860771"
       inkscape:label="Ceres" />
    <path
       d="m 28.647706,16.10945 c 0.374547,-0.0085 0.853849,-0.176316 1.13245,0.168209 0.312937,0.300611 0.294741,0.879151 -0.03793,1.159094 -0.304233,0.303871 -0.844719,0.327181 -1.197361,0.09695 -0.326233,-0.227506 -0.326499,-0.668594 -0.23375,-1.013907 0.05401,-0.180066 0.216874,-0.278835 0.33662,-0.410289 z"
       style="display:block;opacity:0.5;fill:#ecece7;stroke-width:0.111532"
       id="CBCrater"
       inkscape:label="CeresBottomCrater" />
    <path
       d="m 28.201579,11.871239 c 0.35668,-0.05572 0.776429,-0.08757 1.05259,0.193543 0.345409,0.25773 0.697381,0.622507 0.650718,1.089771 0.0407,0.365268 -0.08938,0.721735 -0.327447,0.997299 -0.211622,0.291481 -0.560429,0.465965 -0.921701,0.434846 -0.539058,-0.01758 -1.014643,-0.398869 -1.280406,-0.847148 -0.226089,-0.43475 -0.137388,-0.982736 0.194715,-1.338361 0.178968,-0.207478 0.37445,-0.420751 0.631531,-0.52995 z"
       style="display:block;opacity:0.5;fill:#e8e5dd;stroke-width:0.111532"
       id="CMCrater"
       inkscape:label="CeresMidCrater" />
    <path
       d="m 28.424642,8.1906762 c 0.508867,-0.028978 1.099467,0.1518875 1.314391,0.6582288 0.16268,0.3734491 0.08352,0.8338417 -0.255184,1.0785854 -0.422626,0.4274416 -1.163665,0.3262116 -1.58808,-0.048154 -0.270163,-0.2881143 -0.271442,-0.7889903 -0.05977,-1.1108976 0.171202,-0.2133051 0.312042,-0.4858545 0.588639,-0.5778052 z"
       style="display:block;opacity:0.5;fill:#e6ebe8;stroke-width:0.111532"
       id="CTCrater"
       inkscape:label="CeresTopCrater" />
    <path
       d="m 41.45672,8.775353 0.348381,0.9625151 c 0.223064,0.1487127 0.766938,0.1156334 0.990001,0.2643459 l -0.9732,0.406443 c -0.105577,0.262823 -0.204378,0.780575 -0.32391,1.037367 -0.06701,-0.332869 -0.201555,-0.785602 -0.364074,-1.136008 -0.18372,-0.110232 -0.720328,-0.113524 -0.904049,-0.223756 0.283992,-0.08161 0.622465,-0.2464376 0.91662,-0.3529836 l 0.09791,-0.278036 c 0.07436,-0.2230638 0.138017,-0.4568237 0.212368,-0.6798874 z"
       style="display:block;opacity:1;fill:#3e2b16;stroke-width:0.111532"
       id="DStar"
       sodipodi:nodetypes="cccccccccc"
       inkscape:label="DistantStar" />
  </g>
</svg>
