<svg id="svg" version="1.1" style="display:block" viewBox="0 0 62.3 63" width="62.3" height="63" xmlns="http://www.w3.org/2000/svg" xmlns:svg="http://www.w3.org/2000/svg">
<g class="pp_logo_border" transform="translate(-0.926,-0.465)">
	<ellipse cx="32.1" cy="32" rx="31.1" ry="31.5" class="pp_logo_border_outer" />
	<ellipse cx="32.1" cy="32" rx="29.3" ry="29.6" class="pp_logo_border_inner" />
</g>
<g class="pp_logo_earth" transform="translate(-0.926,-0.465)">
	<path d="m 24.1,58.6 c 5.6,0 11.3,-0.1 16.9,0 -1,0.8 -3,0.8 -4.3,1.2 -4.3,1 -8.7,0.2 -12.8,-0.9 -0.7,-0.3 -0.2,-0.2 0.2,-0.3 z" />
	<path d="m 16.8,55.1 c 10.3,0 20.5,0.1 30.8,0 -0.9,0.8 -1.9,1.8 -3,1.9 C 39.7,56.8 34.8,57 29.9,56.9 26.8,57 23.6,56.8 20.4,57 19,57.4 18,56 16.8,55.4 c 0,-0.1 0,-0.2 0,-0.3 z" />
	<path d="m 12.9,51.7 c 12.9,-0.1 25.7,0 38.6,0 -0.7,1.7 -2.3,2.1 -4,1.9 -10.6,0 -21.2,0.1 -31.8,0.1 -1.2,0.1 -2.8,-0.9 -2.8,-2 z" />
	<path d="m 10,48.2 c 10.4,-0.1 20.8,0 31.1,0 4.5,0 8.9,0 13.3,0 0.3,0.8 -1.2,2.2 -2.2,1.8 -13.5,0 -27,0.1 -40.4,0.1 C 10.9,50 10.1,49 10,48.2 Z" />
	<path d="m 55.9,44.3 c 2.3,-0.4 0.4,2.7 -1,2.4 -6.3,-0.5 -12.6,-0.1 -19,-0.2 -8.9,0 -17.8,0.1 -26.64,0 -0.87,-0.1 -2.54,-2.4 -1.01,-2.1 1.3,0 2.35,0.5 3.75,0.3 14,0 28,0 42,0 0.4,-0.5 1.3,-0.3 1.9,-0.4 z" />
</g>
<g style="display:block" transform="translate(-0.926,-0.465)">
	<path d="m 32,18.9 h 0.3 c 3.5,3.9 0,0 6.2,6.2 0.1,0.2 0.3,0.3 0.4,0.4 0.4,0.5 0.9,0.9 1.3,1.2 h 0.5 c 0.2,-0.3 0.5,-0.6 0.7,-0.9 l 0.5,0.2 c 0.2,0.2 0.2,0.2 0.5,0.6 1.8,2.2 7.5,7 14.7,14.3 0,0 0,0.6 -0.3,1.1 -0.3,0.5 -1.9,1.4 -2.8,1.4 C 46.8,43.1 45,42.9 37.7,43 30.4,43.1 17.7,43.2 10.4,43.4 8.45,43.5 7.45,41.1 7.77,40.8 11.2,37.4 14.9,34.2 18.5,31 21.6,28.3 31,20 32,18.9 Z m 0,2.7 c -7.6,6.3 -15,12.6 -22.2,19.3 -0.34,0.4 0.4,0.8 0.8,0.8 0.4,0 5.2,0.4 18.4,0.4 12.9,-0.2 12.4,-0.3 25.3,-0.5 0.8,-0.2 0.2,-0.6 0,-0.9 C 51,36.2 46,32.8 42.2,28.6 c -0.5,-0.4 -0.8,-0.6 -1.4,0 -3.8,4 -8.2,7.3 -11.9,11.4 -0.1,0.2 -0.5,0.8 -0.7,1 -0.6,0.1 -1.2,0.1 -1.8,0.1 -0.1,0 -0.4,-0.4 -0.1,-0.8 0.1,-0.1 2.1,-1.9 2.7,-2.4 7,-6.5 7.5,-6.7 10,-9.6 l -0.1,-0.5 c -2,-2.1 -4.2,-4.1 -6.3,-6.1 -0.2,-0.1 -0.3,-0.3 -0.6,-0.1 z" class="pp_logo_mtn"/>
</g>
<g class="pp_logo_sky" transform="translate(-0.926,-0.465)">
	<path d="m 55.9,25.2 c 1,-0.4 1.7,0.8 1.1,1.5 -3.7,0.3 -7.4,0.3 -11.1,0.3 -0.9,-2 2.6,-1.1 3.7,-1.5 2.1,-0.1 4.2,-0.2 6.3,-0.3 z" />
	<path d="m 7.57,25.4 c 3.63,-0.1 7.23,0.2 10.83,0.4 1,1.5 -0.8,1.8 -1.9,1.4 -3,-0.3 -6,-0.3 -9.04,-0.4 -0.24,-0.3 -0.2,-1.1 0.11,-1.4 z" />
	<path d="m 54.5,19.1 c 0.7,-0.1 1.1,0.8 0.8,1.3 -2.4,1.2 -5.1,1.8 -7.5,2.9 -0.9,0.4 -3.2,1.4 -2.8,-0.5 3.2,-1.3 6.4,-2.3 9.5,-3.7 z" />
	<path d="m 9.58,19.1 c 2.22,0.7 4.32,1.6 6.52,2.4 1.1,0.7 2.4,0.9 3.4,1.6 0.1,0.9 -0.6,1.3 -1.3,0.8 -3,-1.3 -6.1,-2.3 -9.07,-3.6 0,-0.4 0.16,-0.8 0.45,-1.2 z" />
	<path d="m 51,14.8 c 2.3,1.1 -0.9,2.2 -1.8,3 -1.8,1.2 -3.6,2.4 -5.3,3.7 -1.3,0.3 -1.1,-1.8 0.2,-1.9 2.3,-1.6 4.6,-3.2 6.9,-4.8 z" />
	<path d="m 13.3,14.9 c 1.4,0.3 2.4,1.7 3.7,2.3 1.5,1.3 3.5,2.1 4.7,3.5 -0.2,1.7 -2.1,0 -2.7,-0.4 -2.2,-1.5 -4.3,-3 -6.4,-4.4 0,-0.4 0.3,-0.8 0.7,-1 z" />
	<path d="m 46.8,11.5 c 1.8,0.1 1.1,1.7 -0.1,2.3 -2.1,1.7 -3.6,4.1 -5.7,5.8 -1.7,-1 0.9,-2.2 1.4,-3.2 1.4,-1.6 3,-3.2 4.4,-4.9 z" />
	<path d="m 17.2,11.4 c 1.4,0.8 2.3,2.4 3.5,3.5 1.1,1.3 2.3,2.5 3.4,3.8 -0.4,1.3 -1.6,0.4 -2.1,-0.4 -1.9,-2 -3.8,-4 -5.6,-6.1 0.2,-0.3 0.5,-0.5 0.8,-0.8 z" />
	<path d="m 47.8,28.9 c 2.3,0.7 4.4,1.9 6.7,2.7 1.6,-0.2 1.3,2.4 -0.1,1.6 -2.2,-1.2 -4.7,-1.9 -6.9,-3 -0.1,-0.5 0,-0.9 0.3,-1.3 z" />
	<path d="m 15.6,29.3 c 1.6,-0.4 1.2,1.7 -0.2,1.5 -2,0.8 -4,1.5 -6.05,2.2 -0.79,-0.2 -0.95,-1.7 0,-1.6 2.15,-0.5 4.15,-1.4 6.25,-2.1 z" />
</g>
<g class="pp_logo_stars" transform="translate(-0.926,-0.465)">
	<circle class="pp_logo_ceres" cx="32.1" cy="12.7" r="7.19" />
	<path d="m 28.6,16.1 c 0.4,0 0.9,-0.2 1.2,0.2 0.3,0.3 0.3,0.9 -0.1,1.1 -0.3,0.3 -0.8,0.4 -1.2,0.1 -0.3,-0.2 -0.3,-0.6 -0.2,-1 0.1,-0.2 0.2,-0.3 0.3,-0.4 z" class="pp_logo_crater" />
	<path d="m 28.2,11.9 c 0.4,-0.1 0.8,-0.1 1.1,0.2 0.3,0.2 0.7,0.6 0.6,1.1 0,0.3 -0.1,0.7 -0.3,1 -0.2,0.2 -0.6,0.4 -0.9,0.4 -0.6,0 -1.1,-0.4 -1.3,-0.9 -0.3,-0.4 -0.2,-0.9 0.2,-1.3 0.1,-0.2 0.3,-0.4 0.6,-0.5 z" class="pp_logo_crater" />
	<path d="m 28.4,8.19 c 0.5,0 1.1,0.15 1.3,0.66 0.2,0.37 0.1,0.83 -0.2,1.08 -0.4,0.47 -1.2,0.37 -1.6,0 C 27.6,9.59 27.6,9.09 27.8,8.77 28,8.56 28.1,8.28 28.4,8.19 Z" class="pp_logo_crater" />
	<path d="m 41.5,8.78 0.3,0.96 c 0.2,0.15 0.8,0.11 1,0.26 l -1,0.4 c -0.1,0.3 -0.2,0.8 -0.3,1 C 41.4,11.1 41.3,10.7 41.1,10.3 41,10.2 40.4,10.2 40.2,10.1 40.5,10 40.9,9.84 41.1,9.73 L 41.2,9.46 C 41.3,9.23 41.4,9 41.5,8.78 Z" class="pp_logo_star" />
</g>
</svg>